<svg id="a" xmlns="http://www.w3.org/2000/svg" viewBox="0 0 698.9 556.157"><defs><style>.c,.d{fill:none;stroke:#58595b}.c,.d,.e,.f,.g,.h,.i,.j{stroke-miterlimit:10}.k{letter-spacing:-.037em}.l{fill:#00a14b}.l,.m,.n{font-family:Helvetica-Bold,Helvetica;font-weight:700}.l,.m,.o{font-size:12px}.p{fill:#129f49;opacity:.35}.p,.q,.r,.s,.t,.u{stroke-width:0}.d{stroke-width:1.111px}.m{fill:#fbb040}.n{fill:#ee2a7b}.n,.v,.w{font-size:13px}.q{fill:#faccc1}.e{fill:#d8f0fb;stroke:#2e3192;stroke-width:3px}.o,.v,.w,.x{font-family:Helvetica,Helvetica}.o,.w,.x{fill:#231f20}.r{fill:#58595b}.y{letter-spacing:-.055em}.v{fill:#000}.f{stroke-width:.347px}.f,.h,.j{opacity:.25}.f,.j{stroke:#00a651}.f,.j,.t{fill:#a3d6b2}.h,.s{fill:#f6a2a8}.g{fill:#dfc6e0;stroke:#662d91;stroke-width:3.5px}.x{font-size:14px}.h{stroke:#ec008c;stroke-width:.5px}.i{opacity:.32;stroke:#fbb040;stroke-width:.7px}.i,.u{fill:#ffe9af}.j{stroke-width:.356px}</style></defs><rect class="g" x="228.591" y="303.786" width="240" height="60" rx="9.002" ry="9.002"/><text class="x" transform="translate(280.523 330.419) scale(.972 1)"><tspan x="0" y="0">Capacity Management</tspan><tspan x="6.624" y="16.8">Optimization Models</tspan></text><rect class="t" x="86.811" y="322.03" width="110" height="24" rx="7.137" ry="7.137"/><text class="o" transform="translate(110.8 338.1)"><tspan x="0" y="0">Parameters</tspan></text><rect class="h" x="229.462" y="394.096" width="238.257" height="161.811" rx="11.109" ry="11.109"/><rect class="s" x="236.683" y="455.764" width="223.817" height="25" rx="9.002" ry="9.002"/><text class="o" transform="translate(246.202 472.579)"><tspan x="0" y="0">Capacity</tspan><tspan class="y" x="46.688" y="0"> </tspan><tspan x="49.365" y="0">Allocation Recommendations</tspan></text><rect class="s" x="236.683" y="487.764" width="223.817" height="25" rx="9.002" ry="9.002"/><text class="o" transform="translate(274.781 504.579)"><tspan class="k" x="0" y="0">T</tspan><tspan x="6.891" y="0">ransfer Recommendations</tspan></text><text class="n" transform="translate(236.683 414.544)"><tspan x="0" y="0">Outputs</tspan></text><rect class="s" x="236.683" y="423.764" width="223.817" height="25" rx="9.002" ry="9.002"/><text class="o" transform="translate(299.229 440.579)"><tspan x="0" y="0">Expected Demand</tspan></text><rect class="s" x="236.683" y="519.764" width="223.817" height="25" rx="9.002" ry="9.002"/><text class="o" transform="translate(294.565 536.579)"><tspan x="0" y="0">Expected Outcomes</tspan></text><rect class="i" x=".35" y=".35" width="698.2" height="59.829" rx="11.545" ry="11.545"/><rect class="u" x="118.916" y="18.035" width="179.707" height="25.686" rx="8.203" ry="8.203"/><text class="o" transform="translate(130.338 35.193)"><tspan x="0" y="0">Hospital Information Systems</tspan></text><rect class="u" x="311.878" y="18.035" width="180" height="25.47" rx="8.21" ry="8.21"/><text class="o" transform="translate(340.519 35.192)"><tspan x="0" y="0">Hospital</tspan><tspan class="y" x="43.354" y="0"> </tspan><tspan x="46.031" y="0">Administrators</tspan></text><rect class="u" x="505.134" y="17.807" width="180" height="26.144" rx="8.21" ry="8.21"/><text class="o" transform="translate(564.451 35.078)"><tspan x="0" y="0">Public Data</tspan></text><text class="m" transform="translate(19.284 35.081)"><tspan x="0" y="0">Data Sources</tspan></text><rect class="q" x="30.167" y="90.787" width="117.987" height="35.114" rx="9.002" ry="9.002"/><text class="w" transform="translate(42.813 113.018) scale(.972 1)"><tspan x="0" y="0">Data Processing</tspan></text><rect class="e" x="360.021" y="154.938" width="180.628" height="48.495" rx="10.579" ry="10.579"/><text class="v" transform="translate(391.698 183.859) scale(.972 1)"><tspan x="0" y="0">Demand Forecasting</tspan></text><polyline class="c" points="89.161 125.901 89.161 174.088 250.652 174.088 250.652 215.999"/><polygon class="r" points="245.665 214.54 250.652 223.175 255.638 214.54 245.665 214.54"/><rect class="j" x="86.811" y="223.175" width="523.56" height="45.183" rx="8.688" ry="8.688"/><rect class="p" x="217.312" y="233.096" width="120" height="25.686" rx="6.704" ry="6.704"/><text class="o" transform="translate(256.697 250.254)"><tspan x="0" y="0">Arrivals</tspan></text><rect class="t" x="348.804" y="233.264" width="120" height="25.47" rx="6.704" ry="6.704"/><text class="o" transform="translate(388.46 250.254)"><tspan x="0" y="0">Census</tspan></text><rect class="p" x="480.844" y="232.868" width="120" height="26.144" rx="6.704" ry="6.704"/><text class="o" transform="translate(517.5 250.139)"><tspan x="0" y="0">Capacity</tspan></text><text class="l" transform="translate(94.574 250.251)"><tspan x="0" y="0">Optimization Inputs</tspan></text><rect class="f" x="202.711" y="85.753" width="495.839" height="45.183" rx="8.455" ry="8.455"/><rect class="p" x="312.49" y="95.674" width="120" height="25.686" rx="6.704" ry="6.704"/><text class="o" transform="translate(351.876 112.831)"><tspan x="0" y="0">Arrivals</tspan></text><rect class="t" x="439.982" y="95.842" width="120" height="25.47" rx="6.704" ry="6.704"/><text class="o" transform="translate(479.638 112.831)"><tspan x="0" y="0">Census</tspan></text><rect class="p" x="568.022" y="95.445" width="120" height="26.144" rx="6.704" ry="6.704"/><text class="o" transform="translate(599.344 112.717)"><tspan x="0" y="0">Covariates</tspan></text><text class="l" transform="translate(211.979 112.828)"><tspan x="0" y="0">Forecast Inputs</tspan></text><polyline class="c" points="196.811 334.03 213.751 334.03 220.401 334.03"/><polygon class="r" points="218.942 339.016 227.578 334.03 218.942 329.044 218.942 339.016"/><polyline class="c" points="348.591 365.632 348.591 381.304 348.591 386.919"/><polygon class="r" points="343.605 385.46 348.591 394.096 353.577 385.46 343.605 385.46"/><polyline class="c" points="348.591 268.358 348.591 287.519 348.591 295.983"/><polygon class="r" points="343.605 294.524 348.591 303.159 353.577 294.524 343.605 294.524"/><polyline class="c" points="450.335 203.433 450.335 214.303 450.335 215.999"/><polygon class="r" points="445.349 214.54 450.335 223.175 455.321 214.54 445.349 214.54"/><polyline class="c" points="450.335 130.936 450.335 142.978 450.335 145.632"/><polygon class="r" points="445.349 144.173 450.335 152.808 455.321 144.173 445.349 144.173"/><polyline class="d" points="148.155 108.577 178.192 108.577 194.736 108.577"/><polygon class="r" points="193.114 114.119 202.711 108.577 193.114 103.036 193.114 114.119"/><polyline class="c" points="89.161 60.179 89.161 77.031 89.161 83.611"/><polygon class="r" points="84.175 82.152 89.161 90.787 94.147 82.152 84.175 82.152"/></svg>