<svg enable-background="new 0 0 60 60" viewBox="0 0 60 60" xmlns="http://www.w3.org/2000/svg"><path d="m38.914 0h-32.414v60h47v-45.414zm.586 3.414 10.586 10.586h-10.586zm-31 54.586v-56h29v14h14v42z"/><path d="m16.5 17h9c.552 0 1-.447 1-1s-.448-1-1-1h-9c-.552 0-1 .447-1 1s.448 1 1 1z"/><path d="m33.5 37h-17c-.552 0-1 .447-1 1s.448 1 1 1h17c.552 0 1-.447 1-1s-.448-1-1-1z"/><path d="m43.5 30h-7c-.552 0-1 .447-1 1s.448 1 1 1h7c.552 0 1-.447 1-1s-.448-1-1-1z"/><path d="m16.5 25h5c.552 0 1-.447 1-1s-.448-1-1-1h-5c-.552 0-1 .447-1 1s.448 1 1 1z"/><path d="m31.5 25h7c.552 0 1-.447 1-1s-.448-1-1-1h-7c-.552 0-1 .447-1 1s.448 1 1 1z"/><path d="m25.5 24c0 .26.11.52.29.71.19.18.45.29.71.29s.52-.11.71-.29c.18-.19.29-.45.29-.71 0-.261-.11-.521-.29-.71-.37-.37-1.04-.37-1.42 0-.18.189-.29.449-.29.71z"/><path d="m21.5 30c-.552 0-1 .447-1 1s.448 1 1 1h10c.552 0 1-.447 1-1s-.448-1-1-1z"/><path d="m16.5 32c.26 0 .52-.11.71-.29.18-.19.29-.45.29-.71 0-.261-.11-.521-.29-.71-.37-.37-1.05-.37-1.42 0-.18.189-.29.439-.29.71 0 .26.11.52.29.71.19.18.45.29.71.29z"/><path d="m43.5 44h-7c-.552 0-1 .447-1 1s.448 1 1 1h7c.552 0 1-.447 1-1s-.448-1-1-1z"/><path d="m31.5 44h-10c-.552 0-1 .447-1 1s.448 1 1 1h10c.552 0 1-.447 1-1s-.448-1-1-1z"/><path d="m15.79 44.29c-.18.18-.29.439-.29.71 0 .27.1.52.29.71.19.18.45.29.71.29.27 0 .52-.11.71-.29.18-.19.29-.45.29-.71 0-.271-.11-.521-.29-.7-.37-.38-1.04-.38-1.42-.01z"/><path d="m42.79 23.29c-.18.189-.29.449-.29.71 0 .26.11.52.29.71.19.18.45.29.71.29s.52-.11.71-.29c.19-.19.29-.45.29-.71 0-.261-.1-.521-.29-.71-.38-.37-1.04-.37-1.42 0z"/><path d="m39.21 38.71c.18-.19.29-.45.29-.71 0-.261-.11-.521-.29-.71-.38-.37-1.05-.37-1.42 0-.18.189-.29.449-.29.71 0 .26.11.52.29.71.19.189.44.29.71.29s.52-.11.71-.29z"/><path d="m42.79 37.29c-.18.189-.29.449-.29.71 0 .26.11.52.29.71.19.18.44.29.71.29s.52-.11.71-.29c.18-.19.29-.45.29-.71 0-.261-.11-.521-.29-.71-.37-.37-1.05-.37-1.42 0z"/></svg>