<svg enable-background="new 0 0 58 58" viewBox="0 0 58 58" xmlns="http://www.w3.org/2000/svg"><path d="m51.5 14-14-14h-31v58h45z" fill="#edeada"/><g fill="#cec9ae"><path d="m37.5 0v14h14z"/><path d="m15.5 16h9c.552 0 1-.447 1-1s-.448-1-1-1h-9c-.552 0-1 .447-1 1s.448 1 1 1z"/><path d="m32.5 36h-17c-.552 0-1 .447-1 1s.448 1 1 1h17c.552 0 1-.447 1-1s-.448-1-1-1z"/><path d="m42.5 29h-7c-.552 0-1 .447-1 1s.448 1 1 1h7c.552 0 1-.447 1-1s-.448-1-1-1z"/><path d="m15.5 24h5c.552 0 1-.447 1-1s-.448-1-1-1h-5c-.552 0-1 .447-1 1s.448 1 1 1z"/><path d="m30.5 24h7c.552 0 1-.447 1-1s-.448-1-1-1h-7c-.552 0-1 .447-1 1s.448 1 1 1z"/><path d="m24.5 23c0 .26.11.52.29.71.19.18.45.29.71.29s.52-.11.71-.29c.18-.19.29-.45.29-.71 0-.261-.11-.521-.29-.71-.37-.37-1.04-.37-1.42 0-.18.189-.29.449-.29.71z"/><path d="m20.5 29c-.552 0-1 .447-1 1s.448 1 1 1h10c.552 0 1-.447 1-1s-.448-1-1-1z"/><path d="m15.5 31c.26 0 .52-.11.71-.29.18-.19.29-.45.29-.71 0-.261-.11-.521-.29-.71-.37-.37-1.05-.37-1.42 0-.18.189-.29.439-.29.71 0 .26.11.52.29.71.19.18.45.29.71.29z"/><path d="m42.5 43h-7c-.552 0-1 .447-1 1s.448 1 1 1h7c.552 0 1-.447 1-1s-.448-1-1-1z"/><path d="m30.5 43h-10c-.552 0-1 .447-1 1s.448 1 1 1h10c.552 0 1-.447 1-1s-.448-1-1-1z"/><path d="m14.79 43.29c-.18.18-.29.439-.29.71 0 .27.1.52.29.71.19.18.45.29.71.29.27 0 .52-.11.71-.29.18-.19.29-.45.29-.71 0-.271-.11-.521-.29-.7-.37-.38-1.04-.38-1.42-.01z"/><path d="m42.5 24c.26 0 .52-.11.71-.29.19-.19.29-.45.29-.71 0-.261-.1-.521-.29-.71-.38-.37-1.04-.37-1.42 0-.18.189-.29.449-.29.71 0 .26.11.52.29.71.19.18.45.29.71.29z"/><path d="m38.21 37.71c.18-.19.29-.45.29-.71 0-.261-.11-.521-.29-.71-.38-.37-1.05-.37-1.42 0-.18.189-.29.449-.29.71 0 .26.11.52.29.71.19.189.44.29.71.29s.52-.11.71-.29z"/><path d="m41.79 36.29c-.18.189-.29.449-.29.71 0 .26.11.52.29.71.19.18.44.29.71.29s.52-.11.71-.29c.18-.19.29-.45.29-.71 0-.261-.11-.521-.29-.71-.37-.37-1.05-.37-1.42 0z"/></g></svg>