<?xml version="1.0" encoding="utf-8"?>
<!-- Generator: Adobe Illustrator 23.0.3, SVG Export Plug-In . SVG Version: 6.00 Build 0)  -->
<svg version="1.1" id="Layer_1" xmlns:gadfly="http://www.gadflyjl.org/ns"
	 xmlns="http://www.w3.org/2000/svg" xmlns:xlink="http://www.w3.org/1999/xlink" x="0px" y="0px" viewBox="0 0 432 432"
	 style="enable-background:new 0 0 432 432;" xml:space="preserve">
<style type="text/css">
	.st0{fill:none;stroke:#D3D3D3;stroke-width:0.95;}
	.st1{fill:#170019;}
	.st2{fill:#0000FF;}
	.st3{fill:#FF977C;}
	.st4{fill:#A3FF32;}
	.st5{fill:#00D0FF;}
	.st6{fill:#BC9800;}
	.st7{fill:#B88FFF;}
	.st8{fill:#25390E;}
	.st9{fill:#479874;}
	.st10{fill:#8F0100;}
	.st11{font-family:'ArialMT';}
	.st12{font-size:11.3386px;}
	.st13{enable-background:new    ;}
	.st14{fill:none;stroke:#000000;stroke-width:0.3;}
</style>
<g id="img-e103182d-1">
	<g transform="translate(128,42.7)">
		<path class="st0" d="M258.9,169.5l-48.1-38.3"/>
	</g>
	<g transform="translate(119.13,72.57)">
		<path class="st0" d="M269,154.8L168.2,255.5"/>
	</g>
	<g transform="translate(118.61,31.02)">
		<path class="st0" d="M269.5,180.6L165.7,77.3"/>
	</g>
	<g transform="translate(114.58,55.34)">
		<path class="st0" d="M267.4,166L153,181.1"/>
	</g>
	<g transform="translate(134.9,69.42)">
		<path class="st0" d="M258.5,159.4l-22.1,80"/>
	</g>
	<g transform="translate(59.22,32.84)">
		<path class="st0" d="M119.9,191.9L97.4,72.6"/>
	</g>
	<g transform="translate(53.76,74.9)">
		<path class="st0" d="M122,168.2l-46.8,82.5"/>
	</g>
	<g transform="translate(81.18,75.18)">
		<path class="st0" d="M107.4,167l83.1,85.8"/>
	</g>
	<g transform="translate(80.66,33.62)">
		<path class="st0" d="M106.3,192l83.3-116.7"/>
	</g>
	<g transform="translate(38.25,52.13)">
		<path class="st0" d="M129,179.3L11.4,155.9"/>
	</g>
	<g transform="translate(76.64,57.95)">
		<path class="st0" d="M118.4,177.1l44.4,2.5"/>
	</g>
	<g transform="translate(96.95,72.02)">
		<path class="st0" d="M95.7,167.5L260,240.8"/>
	</g>
	<g transform="translate(85.47,20.92)">
		<path class="st0" d="M81.6,80L232,140.8"/>
	</g>
	<g transform="translate(76.07,9.24)">
		<path class="st0" d="M93,87.3l93.1,3.4"/>
	</g>
	<g transform="translate(33.66,27.75)">
		<path class="st0" d="M112.8,75.9l-102.2,94"/>
	</g>
	<g transform="translate(107.43,63.26)">
		<path class="st0" d="M219.5,112.7l-44.8,150.7"/>
	</g>
	<g transform="translate(106.91,21.7)">
		<path class="st0" d="M216,136.6l-39.8-49.5"/>
	</g>
	<g transform="translate(123.2,60.1)">
		<path class="st0" d="M208.9,115.9l34.2,132.8"/>
	</g>
	<g transform="translate(71.14,92.86)">
		<path class="st0" d="M67,241.7l127,1.2"/>
	</g>
	<g transform="translate(28.21,69.81)">
		<path class="st0" d="M89.8,256L13.7,144.1"/>
	</g>
	<g transform="translate(66.59,75.63)">
		<path class="st0" d="M66.8,251.8l110.7-82"/>
	</g>
	<g transform="translate(114.33,89.98)">
		<path class="st0" d="M178.7,243.3l62.1-12.4"/>
	</g>
	<g transform="translate(93.49,34.35)">
		<path class="st0" d="M181.4,75.5l-19.7,119.1"/>
	</g>
</g>
<g id="img-e103182d-2">
</g>
<g id="img-e103182d-3">
</g>
<g id="img-e103182d-4">
	<g transform="translate(139.7,52.02)">
		<circle class="st1" cx="256.3" cy="167.4" r="13.7"/>
	</g>
	<g transform="translate(63.8,57.22)">
		<circle class="st2" cx="117.1" cy="177" r="13.7"/>
	</g>
	<g transform="translate(54.63,8.47)">
		<circle class="st3" cx="100.2" cy="87.5" r="13.7"/>
	</g>
	<g transform="translate(116.3,33.38)">
		<circle class="st4" cx="213.4" cy="133.2" r="13.7"/>
	</g>
	<g transform="translate(43.72,92.58)">
		<circle class="st5" cx="80.2" cy="241.9" r="13.7"/>
	</g>
	<g transform="translate(98.56,93.13)">
		<circle class="st6" cx="180.8" cy="242.9" r="13.7"/>
	</g>
	<g transform="translate(97.52,10.02)">
		<circle class="st7" cx="178.9" cy="90.4" r="13.7"/>
	</g>
	<g transform="translate(12.7,47.04)">
		<circle class="st8" cx="23.3" cy="158.3" r="13.7"/>
	</g>
	<g transform="translate(89.47,58.67)">
		<circle class="st9" cx="164.1" cy="179.6" r="13.7"/>
	</g>
	<g transform="translate(130.09,86.83)">
		<circle class="st10" cx="238.7" cy="231.3" r="13.7"/>
	</g>
</g>
<g id="img-e103182d-5">
	<g transform="translate(139.7,52.02)">
		<g>
			<text transform="matrix(1 0 0 1 253.1477 171.4058)" class="st11 st12">1</text>
			<g class="st13">
				<text transform="matrix(1 0 0 1 253.1477 171.4058)" class="st14 st11 st12">1</text>
			</g>
		</g>
	</g>
	<g transform="translate(63.8,57.22)">
		<g>
			<text transform="matrix(1 0 0 1 113.8982 180.946)" class="st11 st12">2</text>
			<g class="st13">
				<text transform="matrix(1 0 0 1 113.8982 180.946)" class="st14 st11 st12">2</text>
			</g>
		</g>
	</g>
	<g transform="translate(54.63,8.47)">
		<g>
			<text transform="matrix(1 0 0 1 97.0741 91.5075)" class="st11 st12">3</text>
			<g class="st13">
				<text transform="matrix(1 0 0 1 97.0741 91.5075)" class="st14 st11 st12">3</text>
			</g>
		</g>
	</g>
	<g transform="translate(116.3,33.38)">
		<g>
			<text transform="matrix(1 0 0 1 210.2166 137.2079)" class="st11 st12">4</text>
			<g class="st13">
				<text transform="matrix(1 0 0 1 210.2166 137.2079)" class="st14 st11 st12">4</text>
			</g>
		</g>
	</g>
	<g transform="translate(43.72,92.58)">
		<g>
			<text transform="matrix(1 0 0 1 77.0583 245.8194)" class="st11 st12">5</text>
			<g class="st13">
				<text transform="matrix(1 0 0 1 77.0583 245.8194)" class="st14 st11 st12">5</text>
			</g>
		</g>
	</g>
	<g transform="translate(98.56,93.13)">
		<g>
			<text transform="matrix(1 0 0 1 177.6705 246.828)" class="st11 st12">6</text>
			<g class="st13">
				<text transform="matrix(1 0 0 1 177.6705 246.828)" class="st14 st11 st12">6</text>
			</g>
		</g>
	</g>
	<g transform="translate(97.52,10.02)">
		<g>
			<text transform="matrix(1 0 0 1 175.7622 94.3511)" class="st11 st12">7</text>
			<g class="st13">
				<text transform="matrix(1 0 0 1 175.7622 94.3511)" class="st14 st11 st12">7</text>
			</g>
		</g>
	</g>
	<g transform="translate(12.7,47.04)">
		<g>
			<text transform="matrix(1 0 0 1 20.1477 162.2696)" class="st11 st12">8</text>
			<g class="st13">
				<text transform="matrix(1 0 0 1 20.1477 162.2696)" class="st14 st11 st12">8</text>
			</g>
		</g>
	</g>
	<g transform="translate(89.47,58.67)">
		<g>
			<text transform="matrix(1 0 0 1 160.9939 183.6064)" class="st11 st12">9</text>
			<g class="st13">
				<text transform="matrix(1 0 0 1 160.9939 183.6064)" class="st14 st11 st12">9</text>
			</g>
		</g>
	</g>
	<g transform="translate(130.09,86.83)">
		<g>
			<text transform="matrix(1 0 0 1 232.3641 235.2706)" class="st11 st12">10</text>
			<g class="st13">
				<text transform="matrix(1 0 0 1 232.3641 235.2706)" class="st14 st11 st12">10</text>
			</g>
		</g>
	</g>
</g>
</svg>
