<svg viewBox="0 0 576 576" xmlns="http://www.w3.org/2000/svg"><path d="m12.942 282.86c1.018-48.772 15.159-101.23 46.974-148.146 37.287-54.986 88.141-92.169 151.258-112.442 31.798-10.214 64.499-14.753 97.931-12.091 38.04 3.029 73.931 13.656 107.715 31.408 31.531 16.568 59.369 37.808 82.874 64.704 34.079 38.995 55.737 83.874 64.301 134.953 3.923 23.396 5.436 46.979 3.46 70.684-2.704 32.433-11.096 63.369-24.742 92.899-18.023 39.002-43.238 72.44-76.827 99.412-18.515 14.868-38.441 27.503-59.953 37.563-24.076 11.259-49.079 19.901-75.499 23.282-48.47 6.203-95.7 1.59-141.295-17.175-38.775-15.959-72.74-38.822-101.284-69.423-29.187-31.29-49.596-67.815-62.303-108.659-8.899-28.603-12.68-52.327-12.611-86.968zm13.336 16.237c.005.283.011.566.016.849-.011 1.431-.089 2.865-.022 4.292 1.076 22.905 5.956 45.054 13.136 66.767 13.266 40.117 34.207 75.702 64.336 105.33 36.834 36.223 80.382 60.837 131.082 72.161 17.238 3.85 34.632 6.349 52.354 5.944 2.856-.013 5.713-.026 8.569-.039 7.15-.314 14.335-.284 21.444-1.004 29.258-2.964 57.144-10.882 83.699-23.566 47.727-22.797 86.392-55.947 114.574-100.832 17.223-27.432 29.059-57.169 34.804-89.1 2.122-11.795 2.907-23.83 4.301-35.756.992-17.783.319-35.485-2.282-53.124-6.595-44.726-22.571-85.495-50.339-121.487-14.888-19.297-31.641-36.658-51.24-51.131-38.057-28.104-80.066-47.132-127.222-53.471-12.279-1.65-24.806-1.457-37.219-2.11-.857-.024-1.715-.093-2.57-.065-41.115 1.368-79.574 12.47-115.693 31.879-30.834 16.569-57.8 37.915-80.402 64.825-16.999 20.239-30.867 42.26-40.877 66.707-9.102 22.23-15.43 45.241-18.291 69.085-1.326 11.05-1.489 22.239-2.179 33.365.008 3.493.015 6.986.023 10.479z" fill="#294a63"/><path d="m26.255 288.617c.69-11.126.853-22.315 2.179-33.365 2.862-23.844 9.189-46.855 18.291-69.085 10.01-24.447 23.879-46.469 40.877-66.707 22.602-26.91 49.568-48.256 80.402-64.825 36.12-19.409 74.579-30.511 115.693-31.879.855-.028 1.713.041 2.57.065.063 6.185.125 12.371.188 18.556-3.312 5.667-2.778 11.158.758 16.511-.303 5.384-.607 10.768-.91 16.152-.852.083-1.703.214-2.557.243-26.362.908-51.47 7.238-75.726 17.363-19.02 7.939-36.483 18.448-52.502 31.392-2.433 1.966-4.719 3.423-8.379 3.217-8.117-.458-13.965 6.198-13.152 14.407.262 2.649-.232 4.556-1.957 6.589-18.44 21.727-32.683 45.869-41.5 73.063-.704 2.172-1.56 3.204-4.067 3.379-6.041.422-10.893 3.36-14.353 8.337-6.546 9.417-3.889 20.792 6.592 27.276 2.477 1.532 3.14 3.057 2.96 5.808-.532 8.142-.755 16.303-1.098 24.457-16.305-.003-32.61.024-48.915-.05-1.799-.008-3.596-.589-5.394-.904z" fill="#cdf3dc"/><path d="m287.18 554.441c-17.722.405-35.116-2.094-52.354-5.944-50.7-11.324-94.247-35.937-131.082-72.161-30.129-29.629-51.069-65.213-64.336-105.33-7.18-21.713-12.061-43.862-13.136-66.767-.067-1.427.011-2.861.022-4.292l1.029-.771c17.751.233 35.503.466 53.254.699.561 9.001 1.194 17.998 1.593 27.006.048 1.094-.883 2.628-1.827 3.307-6.782 4.879-9.563 11.623-7.942 19.523 1.673 8.154 6.946 13.805 15.303 15.659 3.029.672 4.137 2.299 5.135 4.862 15.673 40.244 40.328 73.626 75.708 98.777 30.029 21.348 63.459 33.861 99.947 38.335 5.947.729 11.952.986 17.93 1.461-.019 5.961-.038 11.922-.057 17.882-12.926.323-25.676-1.31-38.366-3.526-15.976-2.79-31.327-7.77-46.513-13.332-2.994-1.097-4.552.136-6.649 4.599-1.465 3.119 1.333 3.327 2.859 4.042 19.195 9 39.5 14.263 60.411 17.112 9.332 1.271 18.804 1.51 28.213 2.217.286 5.547.572 11.094.858 16.641zm-94.848-45.341c-.32-3.378-1.832-4.419-4.065-4.505-2.057-.079-3.249 1.135-3.291 3.096-.051 2.347 1.471 3.964 3.653 3.761 1.42-.132 2.709-1.678 3.704-2.352zm-44.47-31.055c-1.667 2.109-3.225 3.198-3.362 4.444-.252 2.288 1.531 3.581 3.736 3.739 1.918.138 3.701-.919 3.302-2.886-.319-1.574-1.928-2.887-3.676-5.297zm18.934 14.268c-2.614-1.609-4.159-2.951-5.937-3.428-.575-.155-2.297 1.851-2.542 3.06-.383 1.892 2.301 4.171 4.253 3.644 1.217-.329 2.173-1.626 4.226-3.276zm-39.467-30.325c-2.301-1.728-3.584-3.3-5.175-3.731-1.955-.53-3.233 1.115-3.185 3.035.058 2.33 1.722 3.757 3.913 3.607 1.193-.081 2.298-1.441 4.448-2.911zm-45.498-66.097c-2.378-1.477-3.692-2.788-5.218-3.119-1.976-.429-3.173 1.002-3.247 3.02-.073 1.996 2.094 4.177 3.88 3.593 1.378-.45 2.457-1.813 4.586-3.494zm20.628 36.874c-2.904.566-3.89 1.783-3.975 3.768-.09 2.12 1.347 3.521 3.101 3.285 1.289-.174 3.292-1.836 3.323-2.884.04-1.365-1.557-2.777-2.449-4.169zm-18.138-27.102c-.47.004-.94.007-1.41.011-.725 1.289-1.925 2.528-2.066 3.879-.223 2.131 1.412 3.722 3.403 3.344 1.223-.232 3.066-2.201 2.961-3.217-.147-1.423-1.85-2.685-2.887-4.016zm32.064 43.988c-2.425-1.66-3.689-3.085-5.196-3.421-2.033-.453-3.123 1.036-3.032 3.125.097 2.236 1.515 3.652 3.536 3.447 1.3-.132 2.467-1.587 4.692-3.151zm60.007 54.996c.574-.894 1.969-2.109 2.058-3.413.156-2.281-1.513-3.862-3.808-3.412-1.118.219-2.609 1.772-2.783 2.898-.352 2.281 1.188 3.613 4.533 3.928zm-78.997-81.082c-2.368-1.543-3.648-2.906-5.152-3.227-2.001-.428-3.123 1.013-3.039 3.086.089 2.198 1.448 3.666 3.478 3.402 1.334-.174 2.497-1.657 4.712-3.261zm-27.004-45.393c-.477-.009-.953-.018-1.43-.027-.744 1.295-2.255 2.737-2.042 3.848.28 1.457 1.681 3.307 3.034 3.803 1.947.715 3.341-1.192 3.041-2.926-.288-1.666-1.691-3.14-2.603-4.698zm69.544 94.814c-2.255-1.697-3.426-3.149-4.88-3.536-2.08-.553-3.127 1.096-3.13 3.026-.003 2.22 1.516 3.535 3.546 3.374 1.181-.094 2.266-1.391 4.464-2.864z" fill="#afdeea"/><path d="m503.688 304.142c1.378-4.934 5.348-5.093 9.398-5.094 11.405-.003 22.809-.002 34.214-.004q5.745-.001 7.271 5.101c-1.395 11.926-2.179 23.961-4.301 35.756-5.745 31.931-17.581 61.669-34.804 89.1-28.182 44.885-66.847 78.035-114.574 100.832-26.555 12.684-54.441 20.602-83.699 23.566-7.109.72-14.294.689-21.444 1.004-.003-3.401-.02-6.801-.006-10.202.022-5.175-.536-5.239 4.992-5.183.708.007 2.68 1.07 1.88-1.333 22.698-1.491 44.819-5.859 66.306-13.352 26.136-9.114 50.755-21.047 72.284-38.775 1.074-.884 2.825-.926 4.24-1.421 2.641-.923 5.648-1.366 7.816-2.949 4.234-3.093 4.724-9.984 1.534-13.913-2.918-3.594-9.076-4.436-12.784-1.228-1.828 1.581-3.339 4.033-3.965 6.367-.731 2.729-2.119 4.488-4.252 6.096-18.431 13.894-38.607 24.527-60.148 32.731-25.113 9.564-50.924 15.43-77.907 15.492.032-.218.025-.434-.02-.649.025-5.777.051-11.555.076-17.332.839-.136 1.675-.371 2.517-.394 19.384-.534 38.063-4.862 56.322-10.979 27.479-9.206 52.197-23.449 74.397-42.056 1.946-1.631 3.824-2.46 6.541-2.367 12.913.443 22.06-9.088 20.879-22.087-.322-3.544.633-5.836 2.673-8.384 22.262-27.8 35.736-59.497 41.471-94.541 1.292-7.891 2.075-15.865 3.092-23.801zm9.325 72.238c-1.631.133-3.071 1.018-3.024 3.348.045 2.217 1.39 3.423 3.482 3.501 2.18.081 3.451-1.173 3.461-3.4.01-2.225-1.201-3.371-3.919-3.45zm-21.675 51.187c1.656-2.234 3.244-3.468 3.493-4.931.348-2.04-1.161-3.401-3.413-3.291-2.223.109-3.528 1.628-3.253 3.587.188 1.339 1.643 2.5 3.173 4.635zm12.46-17.355c-.007-.505-.015-1.009-.022-1.514-1.262-.805-2.469-2.159-3.797-2.29-2.094-.206-3.472 1.353-3.525 3.492-.051 2.053 1.366 3.452 3.262 3.042 1.488-.321 2.731-1.778 4.082-2.73zm29.915-89.061c-1.154-.947-2.214-2.508-3.483-2.703-2.17-.333-3.33 1.363-3.348 3.488-.016 1.888.83 3.477 2.927 3.498 2.194.022 3.333-1.336 3.904-4.283zm-22.457 74.293c.017-.504.033-1.009.05-1.513-1.334-.933-2.568-2.401-4.025-2.673-2.134-.398-3.441 1.163-3.498 3.349-.058 2.19 1.116 3.827 3.329 3.429 1.489-.268 2.77-1.687 4.145-2.592zm20.946-58.696c-2.112-1.585-3.181-2.951-4.491-3.244-2.15-.481-3.546 1.077-3.628 3.117-.079 1.957 1.03 3.908 3.184 3.606 1.424-.2 2.652-1.795 4.935-3.479zm-50.885 102.923c.507.017 1.013.034 1.52.05.924-1.308 2.581-2.634 2.551-3.92-.027-1.134-1.787-2.898-3.05-3.181-2.096-.469-3.558 1.216-3.27 3.299.184 1.329 1.462 2.506 2.249 3.751zm41.641-74.745c.014-2.028-1.102-3.105-3.099-3.158-2.123-.057-3.864 1.074-3.667 3.155.121 1.278 1.648 3.264 2.758 3.422 1.927.273 3.836-.834 4.007-3.418zm1.412-18.072c-.472.015-.944.031-1.416.046-.872 1.39-2.417 2.79-2.396 4.166.016 1.044 1.921 2.739 3.173 2.932 2.111.325 3.532-1.468 3.2-3.486-.217-1.324-1.665-2.445-2.561-3.657zm4.231-38.354c1.488 1.384 2.477 3.059 3.432 3.04 2.28-.047 3.021-2.184 2.624-4.036-.336-1.565-1.619-2.926-2.482-4.377-1.061 1.595-2.121 3.19-3.573 5.373zm-60.158 143.253c.269.327.537.653.806.98 1.83-.784 3.842-1.309 5.435-2.429 1.411-.991 1.724-2.796.036-3.972-1.456-1.014-3.322-1.602-4.451.444-.844 1.529-1.234 3.308-1.826 4.976z" fill="#fae1d9"/><path d="m26.278 299.097c.348.026.696.052 1.045.079-.343.257-.686.514-1.029.771-.005-.283-.011-.566-.016-.849z" fill="#cdf3dc"/><path d="m80.577 299.874c1.291-.024 2.582-.048 3.874-.071.417 7 .828 14 1.254 20.999q.346 5.696 5.988 5.721c8.487.038 16.018 5.447 18.989 13.637 2.637 7.27.412 15.77-6.057 20.888-2.366 1.872-2.212 3.31-1.316 5.677 9.461 24.977 23.455 47.205 41.586 66.669 25.361 27.226 56.148 45.954 91.9 56.367 16.156 4.705 32.624 7.48 49.527 7.074 3.139.003 6.279.006 9.418.009 7.968-.696 16.028-.852 23.89-2.179 36.344-6.133 68.577-21.585 97.652-43.956 1.563-1.203 3.003-2.568 4.445-3.81-6.445-10.825-6.407-19.054-.077-26.38 6.642-7.688 15.014-8.851 27.856-3.596 3.641-4.749 7.717-9.39 11.037-14.522 9.688-14.974 17.09-31.068 22.45-48.085 5.582-17.72 8.65-35.851 8.809-54.451.042-4.858.083-9.715.125-14.573.034-.998.139-1.999.092-2.992-1.302-27.201-7.018-53.523-19.102-77.872-30.185-60.821-78.541-99.455-144.796-114.949-10.488-2.453-21.519-2.58-32.299-3.782-3.17.025-6.34.049-9.509.074-5.707.31-11.458.275-17.115.986-38.815 4.878-73.606 19.481-104.481 43.509-2.907 2.263-4.41 4.386-4.073 8.473.615 7.453-5.876 14.02-12.684 12.882-3.716-.621-5.571.805-7.613 3.157-17.883 20.598-31.177 43.746-39.157 69.902-.677 2.22-.425 3.524 1.208 5.228 5.549 5.791 7.153 12.645 4.082 20.173-3.083 7.558-8.806 12.133-17.043 12.275-3.731.064-4.306 1.521-4.38 4.484-.191 7.587-.491 15.17-.747 22.755-1.248-.008-2.496-.016-3.744-.024.344-8.154.567-16.316 1.098-24.457.18-2.751-.483-4.275-2.96-5.808-10.481-6.484-13.138-17.86-6.592-27.276 3.46-4.977 8.312-7.915 14.353-8.337 2.507-.175 3.362-1.206 4.067-3.379 8.817-27.194 23.06-51.336 41.5-73.063 1.725-2.033 2.219-3.94 1.957-6.589-.812-8.209 5.035-14.865 13.152-14.407 3.66.207 5.946-1.25 8.379-3.217 16.019-12.944 33.482-23.453 52.502-31.392 24.256-10.125 49.364-16.455 75.726-17.363.854-.029 1.705-.16 2.557-.243 4.298.08 8.595.16 12.893.239l1.694.044c67.361 5.36 120.61 36.365 161.179 89.637 22.07 28.981 34.157 62.244 39.397 98.184 2.036 13.968 2.575 27.941 2.221 41.997-1.017 7.936-1.801 15.91-3.092 23.801-5.736 35.044-19.209 66.741-41.471 94.541-2.041 2.549-2.996 4.841-2.673 8.384 1.181 12.999-7.966 22.53-20.879 22.087-2.717-.093-4.595.736-6.541 2.367-22.2 18.608-46.917 32.85-74.397 42.056-18.259 6.117-36.938 10.445-56.322 10.979-.842.023-1.678.258-2.517.394-3.124.018-6.247.035-9.371.053-5.978-.475-11.983-.732-17.93-1.461-36.489-4.474-69.918-16.986-99.947-38.335-35.379-25.152-60.035-58.534-75.708-98.777-.998-2.564-2.107-4.191-5.135-4.862-8.358-1.854-13.63-7.505-15.303-15.659-1.621-7.9 1.159-14.644 7.942-19.523.945-.68 1.876-2.213 1.827-3.307-.399-9.008-1.031-18.005-1.593-27.006zm10.872 38.068c-4.512.126-8.272 3.92-8.196 8.27.079 4.485 4.164 8.452 8.652 8.4 4.386-.05 8.266-3.953 8.229-8.279-.037-4.355-4.34-8.513-8.685-8.392zm345.568 87.123c-4.355-.091-8.567 4.067-8.596 8.485-.028 4.346 3.647 7.94 8.324 8.14 4.442.19 8.538-3.825 8.536-8.367-.002-4.307-3.864-8.166-8.264-8.258zm-340.177-182.388c-.069-3.93-4.632-8.068-8.744-7.931-4.163.139-7.684 3.954-7.654 8.293.031 4.413 3.574 7.91 7.938 7.834 4.209-.073 8.529-4.259 8.46-8.197z" fill="#294a63"/><path d="m286.456 41.378c1.301-1.111 2.49-2.398 3.921-3.303 5.776-3.653 12.832-2.503 17 2.649 4.267 5.274 3.994 12.877-.634 17.654-4.711 4.862-12.158 5.36-17.57 1.164-.675-.523-1.307-1.101-1.96-1.654-3.535-5.353-4.07-10.843-.758-16.511z" fill="#294a63"/><path d="m498.951 152.853c-.016 5.713-5.025 10.88-10.55 10.88-5.621 0-10.452-5.082-10.393-10.932.061-5.958 4.399-10.332 10.268-10.353 6.182-.022 10.692 4.373 10.675 10.404z" fill="#294a63"/><path d="m442.407 97.384c4.925.084 8.995 4.311 8.779 9.12-.204 4.543-4.535 8.621-9.068 8.539-4.756-.085-8.736-4.096-8.678-8.745.062-4.956 4.127-8.996 8.967-8.914z" fill="#294a63"/><path d="m473.399 132.301c-.823.629-2.232 2.16-2.631 1.931-1.694-.972-3.089-2.467-4.592-3.77 1.086-1.089 2.077-2.962 3.277-3.108 2.744-.333 3.072 2.25 3.947 4.947z" fill="#294a63"/><path d="m518.626 203.299c-2.025 1.575-3.17 3.189-4.443 3.297-2.238.19-3.802-1.657-3.516-3.802.166-1.243 2.158-3.379 2.79-3.201 1.611.453 2.921 1.98 5.169 3.706z" fill="#294a63"/><path d="m530.806 250.212c-.061 2.221-1.244 3.865-3.375 3.229-1.39-.414-3.02-2.16-3.319-3.568-.4-1.885 1-3.575 3.258-3.569 2.469.006 3.465 1.57 3.436 3.909z" fill="#294a63"/><path d="m535.767 281.32c-2.04 1.764-3.162 3.541-4.461 3.682-2.402.26-3.573-1.942-3.202-3.968.233-1.272 1.992-3.188 3.018-3.157 1.291.038 2.531 1.768 4.645 3.444z" fill="#294a63"/><path d="m456.777 113.291c1.753 2.459 3.382 3.82 3.706 5.442.369 1.851-1.231 3.193-3.28 2.987-2.377-.24-3.621-1.974-3.393-4.152.122-1.165 1.465-2.201 2.967-4.277z" fill="#294a63"/><path d="m524.194 219.262c-2.057 1.436-3.101 2.673-4.336 2.911-1.953.375-4.289-2.255-3.627-4.16.395-1.136 2.313-2.789 3.006-2.561 1.57.516 2.805 2.051 4.957 3.81z" fill="#294a63"/><path d="m352.55 57.469c-1.282.785-2.494 2.038-3.864 2.244-2.045.308-3.826-1.134-3.543-3.153.163-1.162 2.092-2.874 3.248-2.891 1.377-.021 2.778 1.508 4.168 2.366-.003.478-.006.956-.009 1.434z" fill="#294a63"/><path d="m511.823 188.607c-2.301 1.329-3.864 2.923-4.809 2.616-1.45-.472-3.249-2.116-3.492-3.508-.335-1.924 1.374-3.677 3.538-3.018 1.46.445 2.57 2.04 4.762 3.91z" fill="#294a63"/><path d="m529.903 270.716c-1.545-2.305-2.944-3.499-3.1-4.839-.224-1.919.975-3.717 3.224-3.609 2.12.102 3.48 1.691 3.071 3.748-.266 1.339-1.613 2.462-3.194 4.7z" fill="#294a63"/><path d="m362.088 65.659c-1.693-2.361-3.176-3.589-3.483-5.062-.416-1.992 1.223-3.178 3.172-3.151 2.136.029 3.73 1.422 3.52 3.49-.132 1.306-1.611 2.475-3.209 4.724z" fill="#294a63"/><path d="m503.674 174.22c-1.191.866-2.326 2.35-3.584 2.462-2.241.199-3.839-1.537-3.652-3.706.095-1.101 1.965-3.027 2.729-2.89 1.602.287 3.004 1.693 4.489 2.64z" fill="#294a63"/><path d="m334.737 58.333c-1.621-2.271-3.263-3.598-3.325-4.995-.042-.957 2.002-2.648 3.311-2.877 2.056-.359 3.737 1.184 3.353 3.349-.236 1.327-1.727 2.431-3.339 4.523z" fill="#294a63"/><path d="m320.976 55.918c-1.68-2.164-3.309-3.362-3.564-4.804-.379-2.136 1.379-3.293 3.488-3.231 2.153.063 3.65 1.36 3.208 3.516-.275 1.341-1.644 2.457-3.131 4.519z" fill="#294a63"/><path d="m419.341 85.749c-2.246 1.331-3.39 2.527-4.619 2.622-2.139.166-3.49-1.409-3.471-3.492.019-1.976 1.526-3.403 3.4-2.889 1.434.394 2.545 1.966 4.69 3.758z" fill="#294a63"/><path d="m401.459 73.401c1.595 2.18 3.2 3.463 3.328 4.879.082.906-2.314 3.028-3.073 2.806-1.407-.412-3.006-1.98-3.397-3.381-.241-.863 1.608-2.309 3.142-4.304z" fill="#294a63"/><path d="m431.37 92.941c-.47 2.889-1.696 4.279-3.589 3.899-1.336-.268-2.413-1.821-3.606-2.8 1.003-1.206 1.918-3.28 3.03-3.392 1.299-.13 2.769 1.453 4.165 2.293z" fill="#294a63"/><path d="m374.374 69.303c-.909-1.364-2.525-2.746-2.491-4.086.025-.987 2.286-2.752 3.405-2.646 1.147.109 2.784 1.984 2.957 3.256.142 1.047-1.545 2.342-2.421 3.527-.483-.017-.967-.033-1.45-.05z" fill="#294a63"/><path d="m392.219 71.961c-1.192.87-2.301 2.29-3.595 2.484-2.104.315-3.633-1.284-3.341-3.336.163-1.14 1.815-2.953 2.706-2.901 1.43.083 2.785 1.46 4.172 2.29.019.488.039.975.058 1.463z" fill="#294a63"/><path d="m528.588 234.625c-1.997 1.552-3.015 2.974-4.189 3.117-2.099.257-3.451-1.176-3.505-3.39-.047-1.956.825-3.69 2.95-3.197 1.446.335 2.618 1.849 4.744 3.47z" fill="#294a63"/><path d="m300.891 74.323-1.694-.044c.565.015 1.129.029 1.694.044z" fill="#cdf3dc"/><g fill="#294a63"><path d="m299.225 537.718c-4.301.027-8.602.055-12.904.082-9.409-.707-18.881-.946-28.213-2.217-20.91-2.849-41.216-8.112-60.411-17.112-1.526-.715-4.324-.923-2.859-4.042 2.096-4.463 3.654-5.696 6.649-4.599 15.187 5.562 30.537 10.542 46.513 13.332 12.691 2.216 25.44 3.849 38.366 3.526 2.843.029 5.687.058 8.53.087.28-.014.561-.027.841-.041 26.984-.062 52.795-5.928 77.908-15.492 21.541-8.204 41.717-18.838 60.148-32.731 2.133-1.608 3.521-3.368 4.252-6.096.626-2.334 2.137-4.786 3.965-6.367 3.709-3.208 9.866-2.366 12.784 1.228 3.19 3.929 2.7 10.82-1.534 13.913-2.168 1.583-5.176 2.027-7.816 2.949-1.415.494-3.167.536-4.24 1.421-21.529 17.728-46.148 29.661-72.284 38.775-21.488 7.493-43.608 11.861-66.306 13.352-.868-.002-1.736-.004-2.605-.007-.272-.2-.534-.186-.785.04z"/><path d="m192.332 509.1c-.995.674-2.283 2.22-3.704 2.352-2.182.203-3.704-1.414-3.653-3.761.042-1.962 1.234-3.175 3.291-3.096 2.233.086 3.746 1.127 4.065 4.505z"/><path d="m147.862 478.045c1.748 2.41 3.357 3.723 3.676 5.297.399 1.967-1.384 3.024-3.302 2.886-2.205-.158-3.988-1.452-3.736-3.739.138-1.246 1.695-2.336 3.362-4.444z"/><path d="m166.796 492.313c-2.053 1.65-3.008 2.947-4.226 3.276-1.952.528-4.636-1.752-4.253-3.644.245-1.21 1.967-3.215 2.542-3.06 1.777.478 3.323 1.82 5.937 3.428z"/><path d="m127.329 461.988c-2.149 1.47-3.255 2.83-4.448 2.911-2.191.15-3.855-1.277-3.913-3.607-.048-1.92 1.23-3.565 3.185-3.035 1.591.431 2.874 2.003 5.175 3.731z"/><path d="m81.831 395.891c-2.128 1.681-3.208 3.043-4.586 3.494-1.785.584-3.953-1.597-3.88-3.593.074-2.018 1.271-3.449 3.247-3.02 1.526.331 2.84 1.642 5.218 3.119z"/><path d="m102.459 432.765c.892 1.392 2.489 2.805 2.449 4.169-.031 1.047-2.034 2.71-3.323 2.884-1.754.236-3.192-1.165-3.101-3.285.085-1.985 1.071-3.202 3.975-3.768z"/><path d="m84.321 405.663c1.037 1.331 2.74 2.593 2.887 4.016.105 1.016-1.738 2.985-2.961 3.217-1.991.378-3.625-1.213-3.403-3.344.141-1.35 1.341-2.59 2.066-3.879.47-.004.94-.007 1.41-.011z"/><path d="m116.385 449.651c-2.226 1.564-3.392 3.019-4.692 3.151-2.021.205-3.439-1.211-3.536-3.447-.091-2.089 1-3.578 3.032-3.125 1.507.336 2.771 1.761 5.196 3.421z"/><path d="m176.392 504.647c-3.345-.315-4.885-1.647-4.533-3.928.174-1.126 1.665-2.678 2.783-2.898 2.295-.45 3.964 1.131 3.808 3.412-.089 1.304-1.484 2.52-2.058 3.413z"/><path d="m97.395 423.565c-2.215 1.603-3.379 3.087-4.712 3.261-2.031.264-3.389-1.204-3.478-3.402-.084-2.074 1.037-3.515 3.039-3.086 1.503.322 2.784 1.684 5.152 3.227z"/><path d="m70.391 378.172c.913 1.558 2.315 3.032 2.603 4.698.3 1.735-1.094 3.641-3.041 2.926-1.353-.497-2.754-2.347-3.034-3.803-.214-1.111 1.298-2.553 2.042-3.848.477.009.953.018 1.43.027z"/><path d="m139.935 472.986c-2.198 1.473-3.283 2.77-4.464 2.864-2.03.162-3.549-1.154-3.546-3.374.003-1.931 1.05-3.58 3.13-3.026 1.454.387 2.625 1.839 4.88 3.536z"/><path d="m513.013 376.38c2.718.079 3.929 1.225 3.919 3.45-.01 2.226-1.281 3.48-3.461 3.4-2.093-.078-3.438-1.284-3.482-3.501-.047-2.33 1.394-3.215 3.024-3.348z"/><path d="m491.338 427.567c-1.529-2.135-2.985-3.296-3.173-4.635-.275-1.959 1.03-3.478 3.253-3.587 2.252-.111 3.761 1.251 3.413 3.291-.249 1.463-1.837 2.697-3.493 4.931z"/><path d="m503.798 410.212c-1.352.952-2.594 2.409-4.082 2.73-1.896.409-3.313-.989-3.262-3.042.053-2.139 1.431-3.698 3.525-3.492 1.328.131 2.536 1.485 3.797 2.29.007.505.015 1.009.022 1.514z"/><path d="m533.713 321.151c-.571 2.947-1.71 4.305-3.904 4.283-2.097-.021-2.943-1.61-2.927-3.498.018-2.124 1.178-3.82 3.348-3.488 1.269.195 2.329 1.756 3.483 2.703z"/><path d="m511.256 395.444c-1.374.904-2.656 2.324-4.145 2.592-2.213.398-3.387-1.239-3.329-3.429.058-2.186 1.365-3.747 3.498-3.349 1.457.272 2.691 1.74 4.025 2.673-.017.504-.033 1.009-.05 1.513z"/><path d="m532.202 336.748c-2.282 1.683-3.511 3.279-4.935 3.479-2.154.303-3.263-1.648-3.184-3.606.082-2.04 1.478-3.599 3.628-3.117 1.31.293 2.379 1.659 4.491 3.244z"/><path d="m481.317 439.671c-.787-1.245-2.066-2.422-2.249-3.751-.288-2.084 1.174-3.769 3.27-3.299 1.264.283 3.024 2.047 3.05 3.181.03 1.286-1.627 2.612-2.551 3.92-.507-.017-1.013-.034-1.52-.05z"/><path d="m522.958 364.926c-.172 2.584-2.08 3.691-4.007 3.418-1.11-.157-2.637-2.143-2.758-3.422-.197-2.081 1.543-3.213 3.667-3.155 1.997.054 3.112 1.13 3.099 3.158z"/><path d="m524.37 346.854c.896 1.212 2.344 2.334 2.561 3.657.332 2.018-1.09 3.811-3.2 3.486-1.251-.193-3.157-1.888-3.173-2.932-.021-1.376 1.524-2.776 2.396-4.166.472-.015.944-.031 1.416-.046z"/><path d="m528.601 308.5c1.452-2.183 2.512-3.778 3.573-5.373.864 1.451 2.147 2.813 2.482 4.377.397 1.852-.344 3.989-2.624 4.036-.955.019-1.944-1.656-3.432-3.04z"/><path d="m468.443 451.753c.592-1.668.983-3.447 1.826-4.976 1.129-2.046 2.995-1.458 4.451-.444 1.688 1.176 1.375 2.981-.036 3.972-1.594 1.12-3.605 1.645-5.435 2.429-.269-.327-.537-.653-.806-.98z"/></g><path d="m294.897 526.775c.274-.23.548-.459.822-.69.046.214.053.431.02.649-.281.014-.562.028-.842.041z" fill="#afdeea"/><path d="m84.309 289.595c.256-7.585.556-15.169.747-22.755.075-2.963.649-4.42 4.38-4.484 8.237-.142 13.96-4.717 17.043-12.275 3.071-7.528 1.467-14.382-4.082-20.173-1.633-1.704-1.885-3.008-1.208-5.228 7.98-26.156 21.274-49.304 39.157-69.902 2.042-2.352 3.897-3.778 7.613-3.157 6.807 1.138 13.299-5.429 12.684-12.882-.337-4.087 1.166-6.21 4.073-8.473 30.875-24.029 65.665-38.632 104.481-43.509 5.657-.711 11.408-.676 17.115-.986-.004 14.042-.009 28.085-.011 42.127q-.002 9.521 9.437 9.339c.029.236.04.472.032.709-8.289.434-16.7.11-24.847 1.423-60.397 9.736-100.936 43.781-122.255 100.936-5.921 15.873-7.935 32.484-8.771 49.284-18.53.002-37.059.004-55.589.006z" fill="#cdf3dc"/><path d="m286.322 496.835c-16.904.405-33.371-2.369-49.527-7.074-35.752-10.413-66.539-29.141-91.9-56.367-18.131-19.464-32.125-41.692-41.586-66.669-.897-2.368-1.051-3.805 1.316-5.677 6.469-5.118 8.694-13.617 6.057-20.888-2.971-8.19-10.502-13.599-18.989-13.637q-5.634-.025-5.988-5.721c-.426-6.999-.836-13.999-1.254-20.999 1.964-.239 3.927-.675 5.892-.684 16.542-.076 33.085-.073 49.627-.094 1.325 10.059 2.013 20.252 4.097 30.15 5.619 26.687 18.412 49.73 37.066 69.562 19.151 20.361 41.982 34.836 68.89 42.58 11.842 3.408 23.979 5.415 36.328 5.912-.009 16.536-.018 33.072-.028 49.607z" fill="#afdeea"/><path d="m286.35 447.228c-12.349-.498-24.486-2.505-36.328-5.912-26.908-7.744-49.739-22.218-68.89-42.58-18.654-19.832-31.447-42.875-37.066-69.562-2.084-9.899-2.772-20.092-4.097-30.15-.024-3.145-.048-6.29-.071-9.434.836-16.8 2.85-33.411 8.771-49.284 21.318-57.155 61.858-91.2 122.255-100.936 8.147-1.313 16.558-.989 24.847-1.423l3.495.054c1.105.066 2.21.133 3.315.199 3.263.41 6.534.76 9.786 1.238 26.779 3.94 50.745 14.186 71.996 31.134 19.619 15.647 34.445 34.867 44.584 57.664 8.652 19.455 12.734 40.016 13.206 61.294-.047 4.315-.095 8.629-.142 12.944-.108.705-.26 1.406-.319 2.116-2.003 24.422-8.078 47.489-20.943 68.718-12.991 21.436-30.145 38.459-51.45 51.36-22.591 13.68-47.135 21.254-73.565 22.542-3.128.006-6.257.013-9.385.019zm-132.962-159.108c.143 37.905 9.36 68.987 31.952 95.052 36.692 42.333 82.895 59.141 137.632 46.211 42.355-10.005 73.861-35.536 92.885-75.267 7.496-15.656 11.419-32.308 12.659-49.663 2.387-33.415-4.297-64.818-23.479-92.322-33.151-47.532-79.629-66.581-136.59-58.623-39.308 5.491-69.713 26.37-91.655 59.266-15.929 23.88-23.44 50.45-23.404 75.347z" fill="#294a63"/><path d="m299.225 537.718c.251-.226.513-.24.785-.04-.262.013-.523.027-.785.04z" fill="#afdeea"/><path d="m299.266 138c-1.165-.018-2.33-.036-3.495-.054.007-.237-.004-.474-.032-.709.028-17.18.056-34.36.084-51.54 10.78 1.202 21.812 1.33 32.299 3.782 66.255 15.494 114.611 54.128 144.796 114.949 12.085 24.35 17.801 50.672 19.102 77.872.048.994-.058 1.995-.092 2.992-.514 4.309-3.455 4.356-6.898 4.321-14.291-.146-28.584-.075-42.877-.083-.472-21.278-4.554-41.839-13.206-61.294-10.139-22.797-24.964-42.017-44.584-57.664-21.25-16.948-45.216-27.193-71.996-31.134-3.252-.479-6.524-.829-9.786-1.238-1.105-.066-2.21-.133-3.315-.199z" fill="#fce8af"/><path d="m295.735 447.209c26.43-1.288 50.973-8.862 73.565-22.542 21.305-12.901 38.459-29.924 51.45-51.36 12.865-21.228 18.94-44.295 20.943-68.718.058-.709.21-1.411.319-2.116.855-2.773 2.607-3.721 5.578-3.49 6.379.495 12.787.842 19.183.837 6.682-.005 13.363-.561 20.047-.726 1.654-.041 3.322.499 4.984.771-.159 18.6-3.227 36.731-8.809 54.451-5.36 17.017-12.762 33.111-22.45 48.085-3.32 5.131-7.396 9.773-11.037 14.522-12.843-5.255-21.214-4.092-27.856 3.596-6.329 7.326-6.368 15.554.077 26.38-1.443 1.243-2.882 2.607-4.445 3.81-29.075 22.371-61.308 37.823-97.652 43.956-7.862 1.327-15.921 1.484-23.89 2.179-.002-16.545-.004-33.09-.005-49.635z" fill="#fae1d9"/><path d="m299.266 138c1.105.066 2.21.133 3.315.199-1.105-.066-2.21-.133-3.315-.199z" fill="#cdf3dc"/><path d="m210.553 365.743c0-1.72 0-3.425 0-5.13-.007-29.385-.017-58.77-.02-88.155 0-7.336 4.318-11.876 11.575-11.958 8.456-.096 16.915.044 25.37-.089 2.477-.039 3.758.409 3.485 3.257-.245 2.557-.23 5.171-.006 7.731.259 2.959-1.007 3.636-3.73 3.56-6.159-.171-12.326-.053-18.489-.052-1.399 0-2.799 0-4.385 0v91.201h132.967v-91.16c-7.046 0-13.885.01-20.724-.004-4.516-.009-4.599-.026-4.516-4.44.061-3.232-.765-7.473.928-9.378 1.436-1.616 5.91-.597 9.041-.63 5.446-.057 10.894-.031 16.341-.031 8.999 0 12.903 3.846 12.907 12.747.011 29.385.033 58.769-.024 88.154-.005 2.619.242 4.39 3.244 5.463 3.911 1.398 5.455 4.797 4.602 8.174-.806 3.193-3.147 4.637-7.71 4.638-53.466.01-106.932.012-160.399.006-4.389 0-7.418-2.059-8.152-5.447-.694-3.203 1.571-6.288 5.805-7.885.519-.196 1.063-.325 1.89-.573z" fill="#294a63"/><path d="m258.048 244.852c0-4.007-.071-8.016.014-12.022.217-10.293 7.975-18.658 18.316-19.055 9.857-.379 19.75-.363 29.609-.007 9.406.34 16.981 7.494 17.545 16.839.55 9.126.626 18.334.09 27.458-.647 11.016-10.908 20.811-22.168 21.528-6.84.436-13.759.482-20.591-.008-13.42-.963-22.541-11.048-22.654-24.427-.029-3.435-.004-6.869-.004-10.304-.052 0-.104 0-.155 0zm38.388 7.581h12.201v-10.946h-12.186c0-3.781.136-7.066-.089-10.326-.061-.886-1.149-2.358-1.874-2.427-2.929-.279-5.901-.116-9.279-.116v12.961c-1.435 0-2.431-.002-3.428 0q-9.575.02-8.97 9.92c.015.245.269.475.635 1.086h11.977v11.852h11.014v-12.005z" fill="#294a63"/><path d="m251.758 349.964c-2.142 0-4.286-.048-6.426.012-2.856.08-4.28-1.358-4.327-4.105-.062-3.569.002-7.14.047-10.71.033-2.632 1.503-3.934 4.038-3.973 4.426-.068 8.855-.089 13.281-.028 2.375.033 3.697 1.344 3.73 3.767.052 3.712.034 7.426.094 11.138.045 2.761-1.495 3.824-4.01 3.864-2.142.034-4.284.007-6.426.007v.029z" fill="#294a63"/><path d="m291.473 312.795c-2.147 0-4.294-.024-6.441.006-2.988.041-4.552-1.409-4.598-4.39-.051-3.291-.02-6.584-.047-9.876-.024-2.993 1.459-4.531 4.432-4.56 4.15-.04 8.302.026 12.452-.044 2.87-.048 4.237 1.241 4.198 4.122-.044 3.291.044 6.585-.029 9.876-.087 3.922-.955 4.759-4.815 4.844-1.717.038-3.435.006-5.153.006v.016z" fill="#294a63"/><path d="m251.239 312.798c-1.863 0-3.731-.094-5.587.021-3.056.19-4.59-1.142-4.599-4.212-.011-3.439-.074-6.878-.021-10.316.045-2.939 1.494-4.447 4.572-4.378 4.01.089 8.025-.05 12.034.046 3.705.088 4.528.962 4.58 4.6.047 3.295.019 6.591-.002 9.886-.018 2.986-1.464 4.483-4.531 4.379-2.147-.073-4.298-.014-6.447-.014v-.012z" fill="#294a63"/><path d="m290.999 349.948c-1.999 0-4.002-.082-5.996.019-3.055.155-4.555-1.312-4.614-4.267-.068-3.425-.023-6.853-.026-10.28-.003-2.769 1.326-4.288 4.148-4.309 4.14-.03 8.281-.003 12.422-.023 2.824-.014 4.259 1.5 4.365 4.185.141 3.565.175 7.138.103 10.705-.056 2.769-1.551 4.12-4.405 3.977-1.994-.1-3.997-.019-5.996-.019v.013z" fill="#294a63"/><path d="m330.055 350.019c-11.765.286-10.357.721-10.366-10.213-.007-8.833-1.166-8.893 8.853-8.767 2.573.033 5.147-.025 7.719.019 2.673.046 4.347 1.185 4.34 4.119-.009 3.717.026 7.433.047 11.15.014 2.507-1.352 3.64-3.732 3.682-2.286.041-4.574.009-6.861.009z" fill="#294a63"/><path d="m329.814 293.953c2.143 0 4.286.046 6.428-.011 3.089-.082 4.414 1.435 4.355 4.452-.067 3.427-.078 6.857-.021 10.284.046 2.721-1.487 4.012-3.915 4.085-4.565.137-9.157.235-13.696-.143-1.187-.099-3.066-1.927-3.177-3.098-.39-4.105-.169-8.27-.133-12.412.019-2.135 1.34-3.06 3.305-3.12 2.283-.07 4.57-.016 6.856-.016v-.02z" fill="#294a63"/><path d="m297.525 203.633h-13.22c0-5.234-.095-10.331.096-15.418.031-.825 1.329-1.607 2.061-2.39.067-.071.276 0 .418-.011q10.657-.835 10.646 9.917c-.002 2.556 0 5.112 0 7.903z" fill="#294a63"/></svg>