<svg viewBox="0 0 674.18 665.017" xmlns="http://www.w3.org/2000/svg"><path d="m342.127 181.436c-54.407 1.561-109.055.164-163.487.152-26.79-.006-53.595.238-80.383-.033-9.326-.095-19.781-.484-23.404-10.881-3.243-9.309 2.159-18.715 11.132-21.951 9.845-3.55 23.639-1.128 33.95-1.112 13.412.021 26.825.013 40.237-.025 8.261-.024 19.343 1.75 26.21-4.124 6.665-5.702 7.721-16.739 2.068-23.532-12.12-14.564-45.813 6.521-51.716-16.804-4.794-18.941 32.803-34.111 45.654-40.494 51.191-25.425 102.698-38.171 159.682-39.895-.021 28.946-.065 57.891-.057 86.837.006 23.954.073 47.908.113 71.863z" fill="#fdcdc0"/><path d="m341.89 494.845c52-1.873 104.362-.211 156.398-.193 26.522.009 53.048-.078 79.57.062 9.898.052 21.29-.298 27.796 8.689 5.652 7.807 3.23 17.386-4.251 22.965-8.363 6.237-19.531 4.292-29.307 4.261-13.357-.043-26.715-.044-40.072-.034-12.591.009-54.232-4.622-43.97 21.186 8.065 20.283 36.742.881 48.405 14.064 15.014 16.972-24.359 36.554-34.993 41.841-24.866 12.362-50.629 23.42-77.591 30.305-26.893 6.867-54.259 8.531-81.871 9.619.005-31.786.026-63.571.009-95.357-.01-19.136-.079-38.273-.122-57.409z" fill="#fdcdc0"/><path d="m342.127 181.436c-.04-23.954-.107-47.908-.113-71.863-.008-28.946.036-57.891.057-86.837 55.105 4.242 107.405 13.938 156.551 40.704 12.349 6.725 53.387 25.909 37.685 46.005-6.036 7.725-19.491 5.133-27.951 5.12-13.185-.02-27.498-1.53-40.597-.007-9.616 1.118-18.538 8.434-16.081 19.297 2.812 12.434 15.761 12.826 25.91 12.888 27.18.166 54.368-.036 81.549-.03 14.026.003 59.033-4.359 47.877 23.624-4.189 10.507-15.677 10.846-25.456 11.092-14.765.372-29.589.03-44.36.04-33.27.023-66.539.032-99.809.035-31.491.003-63.866 2.207-95.261-.068z" fill="#aac5c5"/><path d="m341.89 494.845c.043 19.136.112 38.273.122 57.409.017 31.786-.004 63.571-.009 95.357-54.781 1.718-111.216-12.485-160.222-36.577-12.93-6.357-52.234-22.983-37.851-43.798 6.761-9.785 20.898-6.484 31.093-6.482 14.468.003 30.178 1.709 44.541-.125 8.293-1.059 15.905-7.048 15.131-16.268-1.261-15.03-18.155-13.779-29.06-13.762-29.705.046-59.409 0-89.114.013-13.892.006-52.754 1.028-40.212-25.278 4.385-9.197 14.302-10.41 23.404-10.567 15.504-.268 31.035-.02 46.542-.027 65.079-.03 130.602-2.236 195.635.106z" fill="#aac5c5"/><path d="m342.085 321.408c-67.648.028-135.296.029-202.944.083-13.529.011-31.262 2.991-44.247-1.646-11.01-3.932-15.718-17.452-8.814-27.245 7.439-10.553 22.466-7.981 33.612-8.002 18.064-.034 36.128-.039 54.192-.046 12.33-.004 30.721 3.477 42.124-1.933 11.171-5.299 14.026-22.116 3.061-29.383-10.448-6.925-31.325-2.642-43.238-2.649-17.686-.009-35.372-.013-53.058-.017-16.275-.003-32.551.031-48.826-.069-12.012-.074-27.108.097-29.824-15.206-5.42-30.535 51.845-20.693 67.896-20.697 76.408-.018 153.844-3.69 230.145.15-.042 11.73-.084 23.46-.126 35.189.027 11.53.054 23.061.081 34.591-.011 12.293-.023 24.586-.034 36.879z" fill="#fca79e"/><path d="m403.042 461.555c-2.009.001-4.017.002-6.026.003-.373-3.766-2.767-8.985.125-11.55 2.059-1.827 6.708.981 8.805-.581.696-.518 1.507-2.159 1.84-2.384 2.531-1.715 1.65-8.26 7.887-4.971 3.915 2.065 1.407 10.03 7.805 6.322 1.306-.757.191-4.512 2.017-5.627 1.869-1.141 3.242-.718 5.29-1.146 8.032-1.676 7.322.977 11.176 4.436 2.037 1.828-.534 4.271 3.919 3.366 1.89-.384 1.286-3.832 2.363-4.324 4.659-2.129 8.642-2.199 14.976-2.469 4.87-.207 12.853-.8 8.262-7.461-1.175-1.704-4.551-1.438-6.206-3.974-3.759-5.758-1.457-26.535-10.114-25.696-1.682.163-4.184 3.229-6.162 4.062-1.228.517-4.435-.472-5.758.351-3.374 2.098-2.261 5.92-5.631 7.687-3.155 1.654-8.476-1.534-11.655 1.008-3.136 2.508-1.266 5.208-5.175 7.022-8.417 3.906-16.63-2.13-18.653-9.878-1.322-5.063 1.733-11.709-.124-16.522-2.14-5.547-3.994-2.656-7.267-6.307-3.726-4.156-.737-5.367-6.86-7.299-3.04-.959-6.129 1.064-8.998-.945-.863-.604-3.472-6.522-4.804-8.085-3.41-3.998-6.693-6.042-11.53-6.117-15.039-.232-2.838 13.667-13.19 17.149-10.773 3.624-6.355-15.01-6.337-21.585.037-13.111 4.279-10.424 16.574-10.424h43.325c59.765.002 119.53-.015 179.296-.085.606.042 1.212.083 1.818.124l2.049.93c12.59 2.139 15.95 19.018 8.91 28.03-9.588 12.273-34.338 7.034-47.869 7.041-20.237.01-40.512-.359-60.745.006-8.695.157-16.843.425-21.872 8.657-3.922 6.422-3.099 14.078 2.235 19.516 10.306 10.507 38.642 4.857 52.149 4.853 20.073-.005 40.147 0 60.22.005 14.355.003 40.357-5.118 52.117 5.012 10.366 8.929 6.866 29.48-7.938 31.025-1.084.279-2.169.557-3.253.836-30.253.029-60.505.086-90.758.08-23.769-.005-47.538-.086-71.307-.133-6.302-.001-12.605-.002-18.907-.004-5.359.014-10.717.028-16.076.041-4.958-.312-9.914-.727-14.877-.878-1.679-.051-3.378.569-5.068.882z" fill="#fda79e"/><path d="m341.858 391.565c-26.654.02-53.308.053-79.962.057-73.303.011-146.606.017-219.908.005-9.225-.002-15.781-4.514-18.374-12.484-3.93-12.079 4.335-24.3 16.726-24.308 99.958-.068 199.916-.058 299.874-.068.499 0 .998.053 1.497.081.049 12.239.098 24.478.147 36.717z" fill="#44646e"/><path d="m342.085 321.408c.011-12.293.023-24.586.034-36.879 56.797 0 113.595.002 170.392-.002 29.315-.002 58.63-.005 87.944-.012 16.551-.003 61.896-8.334 58.468 20.384-2.995 25.088-42.767 16.549-59.662 16.542-28.502-.012-57.004-.024-85.506-.036-57.222-.024-114.449-.265-171.67.003z" fill="#44646e"/><path d="m342.038 249.937.126-35.189c43.316-.041 86.631-.091 129.947-.119 21.367-.014 42.733-.01 64.1-.012 13.812-.001 38.315-3.966 40.433 15.891 2.278 21.353-22.181 19.535-35.982 19.526-21.939-.015-43.878-.031-65.816-.047-43.254-.032-86.931-1.828-130.137.078l-.204-.168-.211.165c-.752-.042-1.504-.084-2.256-.126z" fill="#44646e"/><path d="m341.85 461.508c-41.019.089-82.037.164-123.055.152-22.25-.006-44.5-.021-66.75-.048-14.252-.017-38.832 2.685-38.222-18.634.569-19.879 22.438-17.397 36.347-17.4 21.456-.005 42.912-.009 64.368-.013 42.384-.008 84.972-1.202 127.332.209-.006 11.911-.013 23.822-.019 35.733z" fill="#44646e"/><path d="m341.85 461.509c.006-11.911.013-23.822.019-35.733-.003-11.403-.007-22.807-.01-34.21-.049-12.239-.098-24.478-.147-36.717 1.993-.082 3.986-.236 5.98-.236 76.097-.007 152.195-.007 228.292.044 2.076.001 4.152.572 6.228.877-59.765.07-119.53.087-179.296.085-14.442 0-28.883 0-43.325 0-12.295 0-16.536-2.687-16.574 10.424-.019 6.575-4.437 25.209 6.337 21.585 10.352-3.482-1.849-17.381 13.19-17.149 4.838.075 8.12 2.118 11.53 6.117 1.333 1.562 3.942 7.481 4.804 8.085 2.869 2.009 5.959-.014 8.998.945 6.123 1.932 3.134 3.143 6.86 7.299 3.273 3.651 5.127.76 7.267 6.307 1.857 4.813-1.198 11.459.124 16.522 2.022 7.748 10.236 13.784 18.653 9.878 3.909-1.814 2.039-4.515 5.175-7.022 3.179-2.542 8.501.646 11.655-1.008 3.37-1.767 2.257-5.589 5.631-7.687 1.323-.823 4.53.166 5.758-.351 1.979-.833 4.48-3.898 6.162-4.062 8.656-.839 6.355 19.938 10.114 25.696 1.655 2.536 5.032 2.27 6.206 3.974 4.591 6.66-3.392 7.253-8.262 7.461-6.334.27-10.316.34-14.976 2.469-1.077.492-.473 3.94-2.363 4.324-4.454.905-1.882-1.537-3.919-3.366-3.854-3.459-3.144-6.113-11.176-4.436-2.047.427-3.421.005-5.29 1.146-1.826 1.115-.712 4.87-2.017 5.627-6.398 3.708-3.889-4.257-7.805-6.322-6.237-3.289-5.356 3.257-7.887 4.971-.333.226-1.144 1.866-1.84 2.384-2.097 1.562-6.746-1.246-8.805.581-2.892 2.566-.498 7.785-.125 11.55-18.389-.017-36.778-.033-55.166-.05zm2.66-63.364c-.404.013-.807.026-1.211.039-.106 2.65-1.042 5.328 1.211 7.887z" fill="#fca79e"/><path d="m61.028 303.471c3.378 24.66-43.155 22.883-38.047-3.715 4.07-21.195 40.31-18.471 38.047 3.715z" fill="#fdcdc0"/><path d="m63.459 425.543c24.627.057 23.125 36.905-.384 36.787-24.377-.123-24.354-36.844.384-36.787z" fill="#44646e"/><path d="m636.138 391.622c-25.298-.052-21.707-38.171 3.452-35.839 23.092 2.14 19.054 39.098-3.452 35.839z" fill="#fdcdc0"/><path d="m620.228 214.516c23.633.146 22.694 36.103-.444 35.775-23.487-.333-23.892-35.924.444-35.775z" fill="#44646e"/><g fill="#fca79e"><path d="m403.042 461.555c1.69-.313 3.389-.933 5.068-.882 4.963.151 9.919.566 14.877.878-6.648.001-13.296.003-19.945.004z"/><path d="m439.062 461.51c6.302.001 12.605.002 18.907.004-6.302-.001-12.605-.002-18.907-.004z"/><path d="m620.034 461.567c1.084-.279 2.169-.557 3.253-.836-1.084.279-2.169.557-3.253.836z"/><path d="m586.078 356.586c-.683-.31-1.366-.62-2.049-.93z"/><path d="m344.294 250.063.211-.165.204.168-.204.274z"/></g><path d="m344.51 398.145v7.926c-2.254-2.559-1.317-5.237-1.211-7.887.404-.013.807-.026 1.211-.039z" fill="#fda79e"/></svg>