<svg height="418" overflow="hidden" width="514" xmlns="http://www.w3.org/2000/svg" xmlns:xlink="http://www.w3.org/1999/xlink"><clipPath id="a"><path d="m686 182h514v418h-514z"/></clipPath><clipPath id="b"><path d="m686 182h514v418h-514z"/></clipPath><clipPath id="c"><path d="m687 183h513v417h-513z"/></clipPath><clipPath id="d"><path d="m687 183h513v418h-513z"/></clipPath><g clip-path="url(#a)" transform="translate(-686 -182)"><g clip-path="url(#b)"><g clip-path="url(#c)"><g clip-path="url(#d)"><g stroke-width="3.03998"><path d="m-154.43 834.706v-1013.444" fill="none" stroke="#d3d3d3" stroke-miterlimit="11.3386" transform="matrix(1 0 0 1.00348 -66.0373 232.384)"/><path d="m154.43 834.706v-1013.444" fill="none" stroke="#d3d3d3" stroke-miterlimit="11.3386" transform="matrix(1 0 0 1.00348 102.477 232.384)"/><path d="m463.646 834.706v-1013.444" fill="none" stroke="#d3d3d3" stroke-miterlimit="11.3386" transform="matrix(1 0 0 1.00348 270.991 232.384)"/><path d="m772.863 834.706v-1013.444" fill="none" stroke="#d3d3d3" stroke-miterlimit="11.3386" transform="matrix(1 0 0 1.00348 439.505 232.384)"/><path d="m1082.08 834.706v-1013.444" fill="none" stroke="#d3d3d3" stroke-miterlimit="11.3386" transform="matrix(1 0 0 1.00348 608.019 232.384)"/><path d="m-252.735 764.998h1433.125" fill="none" stroke="#d3d3d3" stroke-miterlimit="11.3386" transform="matrix(1 0 0 1.00348 270.991 471.543)"/><path d="m-252.735 546.581h1433.125" fill="none" stroke="#d3d3d3" stroke-miterlimit="11.3386" transform="matrix(1 0 0 1.00348 270.991 351.945)"/><path d="m-252.735 327.805h1433.125" fill="none" stroke="#d3d3d3" stroke-miterlimit="11.3386" transform="matrix(1 0 0 1.00348 270.991 232.384)"/><path d="m-252.735 109.388h1433.125" fill="none" stroke="#d3d3d3" stroke-miterlimit="11.3386" transform="matrix(1 0 0 1.00348 270.991 112.822)"/><path d="m-252.735-109.388h1433.125" fill="none" stroke="#d3d3d3" stroke-miterlimit="11.3386" transform="matrix(1 0 0 1.00348 270.991 -6.77568)"/><path d="m463.646 834.706v-1013.444" fill="none" stroke="#000" stroke-miterlimit="11.3386" transform="matrix(1 0 0 1.00348 270.991 232.384)"/><path d="m-252.735 327.805h1433.125" fill="none" stroke="#000" stroke-miterlimit="11.3386" transform="matrix(1 0 0 1.00348 270.991 232.384)"/></g><text font-family="Arial,Arial_MSFontService,sans-serif" font-size="11" font-weight="400" transform="matrix(3.57476 0 0 3.58721 571.435 1253)">-2.0</text><text font-family="Arial,Arial_MSFontService,sans-serif" font-size="11" font-weight="400" transform="matrix(3.57476 0 0 3.58721 571.435 914)">-1.0</text><text font-family="Arial,Arial_MSFontService,sans-serif" font-size="11" font-weight="400" transform="matrix(3.57476 0 0 3.58721 584.526 236)">1.0</text><text font-family="Arial,Arial_MSFontService,sans-serif" font-size="11" font-weight="400" transform="matrix(3.57476 0 0 3.58721 584.526 -103)">2.0</text><text font-family="Arial,Arial_MSFontService,sans-serif" font-size="11" font-weight="400" transform="matrix(3.57476 0 0 3.58721 -254.492 653)">-2.0</text><text font-family="Arial,Arial_MSFontService,sans-serif" font-size="11" font-weight="400" transform="matrix(3.57476 0 0 3.58721 223.185 653)">-1.0</text><text font-family="Arial,Arial_MSFontService,sans-serif" font-size="11" font-weight="400" transform="matrix(3.57476 0 0 3.58721 1185.09 653)">1.0</text><text font-family="Arial,Arial_MSFontService,sans-serif" font-size="11" font-weight="400" transform="matrix(3.57476 0 0 3.58721 1662.77 653)">2.0</text><path d="m-252.735-13303.1 1433.125 20266.37" fill="none" stroke="#00f" stroke-miterlimit="11.3386" stroke-width="7.09339" transform="matrix(1 0 0 1.00348 270.991 -1680.78)"/><path d="m-252.735 399.301 1433.125-405.37809" fill="none" stroke="#00f" stroke-miterlimit="11.3386" stroke-width="7.09339" transform="matrix(1 0 0 1.00348 270.991 160.639)"/><path d="m-252.735 501.896 1433.125-303.854" fill="none" stroke="#00f" stroke-miterlimit="11.3386" stroke-width="7.09339" transform="matrix(1 0 0 1.00348 270.991 244.329)"/><path d="m-252.735 762.496 1433.125-759.99367" fill="none" stroke="#00f" stroke-miterlimit="11.3386" stroke-width="7.09339" transform="matrix(1 0 0 1.00348 270.991 262.265)"/><path d="m-252.735 1917.14 1433.125-4053.06" fill="none" stroke="#00f" stroke-miterlimit="11.3386" stroke-width="7.09339" transform="matrix(1 0 0 1.00348 270.991 -6.77568)"/><path d="m-252.735 1021.31 1433.125-1823.843" fill="none" stroke="#00f" stroke-miterlimit="11.3386" stroke-width="7.09339" transform="matrix(1 0 0 1.00348 270.991 112.822)"/><path d="m230.929 298.85-53.978 152.642 430.401-91.156 214.843-113.678-13.584-190.5343-497.249 140.1303z" fill="#f00" fill-opacity=".5" transform="matrix(1 0 0 1.00348 286.827 199.776)"/><path d="m707.802 174.806c0 6.712-5.441 12.154-12.154 12.154-6.712 0-12.154-5.442-12.154-12.154 0-6.713 5.442-12.154 12.154-12.154 6.713 0 12.154 5.441 12.154 12.154z" fill="#d3d3d3" transform="matrix(1 0 0 1.00348 397.394 148.694)"/><path d="m705.657 174.806c0 5.528-4.481 10.009-10.009 10.009s-10.009-4.481-10.009-10.009 4.481-10.01 10.009-10.01 10.009 4.482 10.009 10.01z" transform="matrix(1 0 0 1.00348 397.394 148.694)"/><path d="m645.959 153c0 6.712-5.442 12.154-12.154 12.154-6.713 0-12.154-5.442-12.154-12.154 0-6.713 5.441-12.154 12.154-12.154 6.712 0 12.154 5.441 12.154 12.154z" fill="#d3d3d3" transform="matrix(1 0 0 1.00348 363.684 136.713)"/><path d="m643.814 153c0 5.528-4.481 10.009-10.009 10.009s-10.01-4.481-10.01-10.009 4.482-10.01 10.01-10.01 10.009 4.482 10.009 10.01z" transform="matrix(1 0 0 1.00348 363.684 136.713)"/><path d="m661.33 174.806c0 6.712-5.441 12.154-12.154 12.154-6.712 0-12.154-5.442-12.154-12.154 0-6.713 5.442-12.154 12.154-12.154 6.713 0 12.154 5.441 12.154 12.154z" fill="#d3d3d3" transform="matrix(1 0 0 1.00348 372.085 148.694)"/><path d="m659.186 174.806c0 5.528-4.482 10.009-10.01 10.009s-10.009-4.481-10.009-10.009 4.481-10.01 10.009-10.01 10.01 4.482 10.01 10.01z" transform="matrix(1 0 0 1.00348 372.085 148.694)"/><path d="m692.431 153c0 6.712-5.442 12.154-12.154 12.154-6.713 0-12.154-5.442-12.154-12.154 0-6.713 5.441-12.154 12.154-12.154 6.712 0 12.154 5.441 12.154 12.154z" fill="#d3d3d3" transform="matrix(1 0 0 1.00348 388.958 136.713)"/><path d="m690.286 153c0 5.528-4.481 10.009-10.009 10.009s-10.01-4.481-10.01-10.009 4.482-10.01 10.01-10.01 10.009 4.482 10.009 10.01z" transform="matrix(1 0 0 1.00348 388.958 136.713)"/><text fill="#00205f" font-family="Helvetica Neue,Helvetica Neue_MSFontService,sans-serif" font-size="8" font-weight="400" transform="matrix(3.57476 0 0 3.58721 971.805 318)">1</text><text fill="#001755" font-family="Helvetica Neue,Helvetica Neue_MSFontService,sans-serif" font-size="8" font-weight="400" transform="matrix(3.57476 0 0 3.58721 997.489 352)">2</text><text fill="#00296a" font-family="Helvetica Neue,Helvetica Neue_MSFontService,sans-serif" font-size="8" font-weight="400" transform="matrix(3.57476 0 0 3.58721 1047.85 318)">3</text><text fill="#001d74" font-family="Helvetica Neue,Helvetica Neue_MSFontService,sans-serif" font-size="8" font-weight="400" transform="matrix(3.57476 0 0 3.58721 1072.71 358)">4</text></g></g></g></g></svg>